<svg width="1975" height="569" viewBox="0 0 1975 569" fill="none" xmlns="http://www.w3.org/2000/svg">
<g clip-path="url(#clip0_122_116)">
<path fill-rule="evenodd" clip-rule="evenodd" d="M1091.55 190.59C1142.8 190.59 1184.35 232.15 1184.35 283.41C1184.35 334.67 1142.68 376.21 1091.55 376.21H950.3L971.8 295.81C973.82 288.27 980.57 283.3 988.32 283.32L1010.62 283.37L1023.17 283.4L1010.73 329.8H1091.55C1117.28 329.8 1137.94 309.14 1137.94 283.41C1137.94 257.68 1117.18 237.01 1091.55 237.01H1016.68C1013.26 237.01 1010.46 232.9 1010.46 230.78C1010.46 228.66 1010.61 229.21 1010.89 228.51H1010.66C1010.41 228.51 1010.17 228.5 1009.92 228.47C1010.23 229.18 1010.4 229.96 1010.4 230.78C1010.4 233.97 1007.81 236.55 1004.63 236.55C1001.45 236.55 998.86 233.96 998.86 230.78C998.86 229.76 999.13 228.81 999.59 227.98C999.27 228.03 998.94 228.06 998.61 228.06C998.08 228.06 997.56 227.99 997.07 227.85C997.62 228.69 997.94 229.7 997.94 230.77C997.94 233.73 995.54 236.13 992.58 236.13C989.62 236.13 987.22 233.73 987.22 230.77C987.22 229.43 987.71 228.2 988.53 227.26C987.92 227.5 987.25 227.64 986.56 227.64C983.6 227.64 981.2 225.24 981.2 222.28C981.2 220.94 981.69 219.72 982.5 218.78C981.89 219.02 981.22 219.16 980.53 219.16C977.57 219.16 975.17 216.76 975.17 213.8C975.17 210.84 977.57 208.44 980.53 208.44C981.23 208.44 981.89 208.57 982.5 208.82C981.69 207.88 981.2 206.66 981.2 205.32C981.2 202.36 983.6 199.96 986.56 199.96C987.26 199.96 987.92 200.09 988.53 200.34C987.72 199.4 987.22 198.17 987.22 196.83C987.22 193.87 989.62 191.47 992.58 191.47C995.54 191.47 997.94 193.87 997.94 196.83C997.94 197.91 997.62 198.91 997.07 199.75C997.56 199.61 998.07 199.54 998.61 199.54C998.95 199.54 999.27 199.57 999.59 199.62C999.13 198.79 998.86 197.84 998.86 196.82C998.86 193.64 1001.45 191.05 1004.63 191.05C1007.81 191.05 1010.4 193.64 1010.4 196.82C1010.4 197.64 1010.23 198.42 1009.92 199.13C1010.16 199.1 1010.41 199.09 1010.66 199.09H1010.89C1010.62 198.39 1010.46 197.63 1010.46 196.82C1010.46 193.39 1013.25 190.6 1016.68 190.6H1016.84H1091.55V190.59ZM980.52 235.3C978.03 235.3 976 233.28 976 230.78C976 228.28 978.03 226.26 980.52 226.26C983.01 226.26 985.04 228.29 985.04 230.78C985.04 233.27 983.01 235.3 980.52 235.3ZM968.47 234.98C966.15 234.98 964.27 233.1 964.27 230.78C964.27 228.46 966.15 226.58 968.47 226.58C970.79 226.58 972.67 228.46 972.67 230.78C972.67 233.1 970.79 234.98 968.47 234.98ZM956.42 234.68C954.27 234.68 952.52 232.93 952.52 230.78C952.52 228.63 954.27 226.88 956.42 226.88C958.57 226.88 960.32 228.63 960.32 230.78C960.32 232.93 958.57 234.68 956.42 234.68ZM944.37 234.4C942.37 234.4 940.75 232.77 940.75 230.78C940.75 228.79 942.37 227.15 944.37 227.15C946.37 227.15 947.99 228.78 947.99 230.78C947.99 232.78 946.36 234.4 944.37 234.4ZM932.31 234.14C930.45 234.14 928.94 232.63 928.94 230.77C928.94 228.91 930.45 227.4 932.31 227.4C934.17 227.4 935.68 228.91 935.68 230.77C935.68 232.63 934.17 234.14 932.31 234.14ZM920.25 233.9C918.53 233.9 917.12 232.5 917.12 230.77C917.12 229.04 918.52 227.64 920.25 227.64C921.98 227.64 923.38 229.04 923.38 230.77C923.38 232.5 921.98 233.9 920.25 233.9ZM908.19 233.68C906.59 233.68 905.28 232.38 905.28 230.77C905.28 229.16 906.58 227.86 908.19 227.86C909.8 227.86 911.09 229.16 911.09 230.77C911.09 232.38 909.79 233.68 908.19 233.68ZM896.14 233.23C894.79 233.23 893.69 232.13 893.69 230.78C893.69 229.43 894.79 228.33 896.14 228.33C897.49 228.33 898.59 229.43 898.59 230.78C898.59 232.13 897.49 233.23 896.14 233.23ZM884.09 233.06C882.83 233.06 881.81 232.04 881.81 230.78C881.81 229.52 882.83 228.5 884.09 228.5C885.35 228.5 886.37 229.52 886.37 230.78C886.37 232.04 885.35 233.06 884.09 233.06ZM872.03 232.9C870.86 232.9 869.91 231.95 869.91 230.79C869.91 229.63 870.86 228.67 872.03 228.67C873.2 228.67 874.15 229.62 874.15 230.79C874.15 231.96 873.2 232.9 872.03 232.9ZM859.97 232.75C858.89 232.75 858 231.87 858 230.78C858 229.69 858.88 228.82 859.97 228.82C861.06 228.82 861.93 229.7 861.93 230.78C861.93 231.86 861.05 232.75 859.97 232.75ZM847.91 232.44C847 232.44 846.25 231.7 846.25 230.78C846.25 229.86 846.99 229.12 847.91 229.12C848.83 229.12 849.57 229.86 849.57 230.78C849.57 231.7 848.83 232.44 847.91 232.44ZM835.85 232.18C835.08 232.18 834.45 231.55 834.45 230.78C834.45 230.01 835.08 229.38 835.85 229.38C836.62 229.38 837.25 230.01 837.25 230.78C837.25 231.55 836.62 232.18 835.85 232.18ZM823.8 231.96C823.15 231.96 822.62 231.43 822.62 230.78C822.62 230.13 823.15 229.6 823.8 229.6C824.45 229.6 824.98 230.13 824.98 230.78C824.98 231.43 824.45 231.96 823.8 231.96ZM974.49 226.81C971.99 226.81 969.97 224.78 969.97 222.29C969.97 219.8 972 217.77 974.49 217.77C976.98 217.77 979.01 219.8 979.01 222.29C979.01 224.78 976.98 226.81 974.49 226.81ZM962.43 226.49C960.11 226.49 958.23 224.61 958.23 222.29C958.23 219.97 960.11 218.09 962.43 218.09C964.75 218.09 966.63 219.97 966.63 222.29C966.63 224.61 964.75 226.49 962.43 226.49ZM950.38 226.19C948.23 226.19 946.48 224.44 946.48 222.29C946.48 220.14 948.23 218.39 950.38 218.39C952.53 218.39 954.28 220.14 954.28 222.29C954.28 224.44 952.53 226.19 950.38 226.19ZM938.33 225.91C936.33 225.91 934.71 224.28 934.71 222.28C934.71 220.28 936.33 218.66 938.33 218.66C940.33 218.66 941.96 220.28 941.96 222.28C941.96 224.28 940.33 225.91 938.33 225.91ZM926.27 225.65C924.41 225.65 922.9 224.14 922.9 222.28C922.9 220.42 924.41 218.91 926.27 218.91C928.13 218.91 929.64 220.42 929.64 222.28C929.64 224.14 928.13 225.65 926.27 225.65ZM914.21 225.41C912.48 225.41 911.08 224.01 911.08 222.28C911.08 220.55 912.48 219.15 914.21 219.15C915.94 219.15 917.34 220.55 917.34 222.28C917.34 224.01 915.94 225.41 914.21 225.41ZM902.15 225.18C900.54 225.18 899.24 223.88 899.24 222.27C899.24 220.66 900.54 219.37 902.15 219.37C903.76 219.37 905.05 220.67 905.05 222.27C905.05 223.87 903.75 225.18 902.15 225.18ZM890.1 224.73C888.75 224.73 887.65 223.63 887.65 222.28C887.65 220.93 888.75 219.83 890.1 219.83C891.45 219.83 892.55 220.93 892.55 222.28C892.55 223.63 891.45 224.73 890.1 224.73ZM878.04 224.56C876.78 224.56 875.76 223.54 875.76 222.28C875.76 221.02 876.78 220 878.04 220C879.3 220 880.32 221.02 880.32 222.28C880.32 223.54 879.3 224.56 878.04 224.56ZM865.98 224.4C864.81 224.4 863.86 223.45 863.86 222.28C863.86 221.11 864.81 220.17 865.98 220.17C867.15 220.17 868.1 221.12 868.1 222.28C868.1 223.44 867.15 224.4 865.98 224.4ZM853.92 224.25C852.84 224.25 851.96 223.37 851.96 222.28C851.96 221.19 852.84 220.32 853.92 220.32C855 220.32 855.89 221.2 855.89 222.28C855.89 223.36 855.01 224.25 853.92 224.25ZM841.87 223.94C840.95 223.94 840.21 223.2 840.21 222.28C840.21 221.36 840.95 220.62 841.87 220.62C842.79 220.62 843.53 221.36 843.53 222.28C843.53 223.2 842.79 223.94 841.87 223.94ZM829.81 223.68C829.04 223.68 828.41 223.05 828.41 222.28C828.41 221.51 829.04 220.88 829.81 220.88C830.58 220.88 831.21 221.51 831.21 222.28C831.21 223.05 830.58 223.68 829.81 223.68ZM817.76 223.46C817.11 223.46 816.58 222.93 816.58 222.28C816.58 221.63 817.11 221.1 817.76 221.1C818.41 221.1 818.94 221.63 818.94 222.28C818.94 222.93 818.41 223.46 817.76 223.46ZM980.5 201.33C978.01 201.33 975.98 199.3 975.98 196.81C975.98 194.32 978.01 192.29 980.5 192.29C982.99 192.29 985.02 194.31 985.02 196.81C985.02 199.31 982.99 201.33 980.5 201.33ZM968.45 201.01C966.13 201.01 964.25 199.13 964.25 196.81C964.25 194.49 966.13 192.61 968.45 192.61C970.77 192.61 972.65 194.49 972.65 196.81C972.65 199.13 970.77 201.01 968.45 201.01ZM956.4 200.71C954.25 200.71 952.5 198.96 952.5 196.81C952.5 194.66 954.25 192.91 956.4 192.91C958.55 192.91 960.3 194.66 960.3 196.81C960.3 198.96 958.55 200.71 956.4 200.71ZM944.35 200.43C942.35 200.43 940.73 198.8 940.73 196.8C940.73 194.8 942.35 193.18 944.35 193.18C946.35 193.18 947.97 194.8 947.97 196.8C947.97 198.8 946.34 200.43 944.35 200.43ZM932.29 200.17C930.43 200.17 928.92 198.66 928.92 196.8C928.92 194.94 930.43 193.43 932.29 193.43C934.15 193.43 935.66 194.94 935.66 196.8C935.66 198.66 934.15 200.17 932.29 200.17ZM920.23 199.93C918.51 199.93 917.1 198.53 917.1 196.8C917.1 195.07 918.5 193.67 920.23 193.67C921.96 193.67 923.36 195.07 923.36 196.8C923.36 198.53 921.96 199.93 920.23 199.93ZM908.17 199.71C906.57 199.71 905.26 198.41 905.26 196.8C905.26 195.19 906.56 193.89 908.17 193.89C909.78 193.89 911.07 195.19 911.07 196.8C911.07 198.41 909.77 199.71 908.17 199.71ZM896.12 199.26C894.77 199.26 893.67 198.16 893.67 196.81C893.67 195.46 894.77 194.36 896.12 194.36C897.47 194.36 898.57 195.46 898.57 196.81C898.57 198.16 897.47 199.26 896.12 199.26ZM884.07 199.09C882.81 199.09 881.79 198.07 881.79 196.81C881.79 195.55 882.81 194.53 884.07 194.53C885.33 194.53 886.35 195.55 886.35 196.81C886.35 198.07 885.33 199.09 884.07 199.09ZM872.01 198.93C870.84 198.93 869.89 197.98 869.89 196.81C869.89 195.64 870.84 194.7 872.01 194.7C873.18 194.7 874.13 195.65 874.13 196.81C874.13 197.97 873.18 198.93 872.01 198.93ZM859.95 198.6C858.96 198.6 858.17 197.8 858.17 196.82C858.17 195.84 858.97 195.04 859.95 195.04C860.93 195.04 861.73 195.84 861.73 196.82C861.73 197.8 860.93 198.6 859.95 198.6ZM847.89 198.48C846.98 198.48 846.23 197.74 846.23 196.82C846.23 195.9 846.97 195.16 847.89 195.16C848.81 195.16 849.55 195.9 849.55 196.82C849.55 197.74 848.81 198.48 847.89 198.48ZM835.83 198.22C835.06 198.22 834.43 197.59 834.43 196.82C834.43 196.05 835.06 195.42 835.83 195.42C836.6 195.42 837.23 196.05 837.23 196.82C837.23 197.59 836.6 198.22 835.83 198.22ZM823.78 198C823.13 198 822.6 197.47 822.6 196.82C822.6 196.17 823.13 195.64 823.78 195.64C824.43 195.64 824.96 196.17 824.96 196.82C824.96 197.47 824.43 198 823.78 198ZM974.47 209.83C971.97 209.83 969.95 207.8 969.95 205.31C969.95 202.82 971.98 200.79 974.47 200.79C976.96 200.79 978.99 202.82 978.99 205.31C978.99 207.8 976.96 209.83 974.47 209.83ZM962.41 209.51C960.09 209.51 958.21 207.63 958.21 205.31C958.21 202.99 960.09 201.11 962.41 201.11C964.73 201.11 966.61 202.99 966.61 205.31C966.61 207.63 964.73 209.51 962.41 209.51ZM950.36 209.21C948.21 209.21 946.46 207.46 946.46 205.31C946.46 203.16 948.21 201.41 950.36 201.41C952.51 201.41 954.26 203.16 954.26 205.31C954.26 207.46 952.51 209.21 950.36 209.21ZM938.31 208.93C936.31 208.93 934.69 207.3 934.69 205.31C934.69 203.32 936.31 201.68 938.31 201.68C940.31 201.68 941.94 203.3 941.94 205.31C941.94 207.32 940.31 208.93 938.31 208.93ZM926.25 208.67C924.39 208.67 922.88 207.16 922.88 205.3C922.88 203.44 924.39 201.93 926.25 201.93C928.11 201.93 929.62 203.44 929.62 205.3C929.62 207.16 928.11 208.67 926.25 208.67ZM914.19 208.43C912.46 208.43 911.06 207.03 911.06 205.3C911.06 203.57 912.46 202.17 914.19 202.17C915.92 202.17 917.32 203.57 917.32 205.3C917.32 207.03 915.92 208.43 914.19 208.43ZM902.13 208.21C900.52 208.21 899.22 206.91 899.22 205.31C899.22 203.71 900.52 202.4 902.13 202.4C903.74 202.4 905.03 203.7 905.03 205.31C905.03 206.92 903.73 208.21 902.13 208.21ZM890.08 207.75C888.73 207.75 887.63 206.65 887.63 205.3C887.63 203.95 888.73 202.85 890.08 202.85C891.43 202.85 892.53 203.95 892.53 205.3C892.53 206.65 891.43 207.75 890.08 207.75ZM878.02 207.58C876.76 207.58 875.74 206.56 875.74 205.3C875.74 204.04 876.76 203.02 878.02 203.02C879.28 203.02 880.3 204.04 880.3 205.3C880.3 206.56 879.28 207.58 878.02 207.58ZM865.96 207.42C864.79 207.42 863.84 206.47 863.84 205.31C863.84 204.15 864.79 203.19 865.96 203.19C867.13 203.19 868.08 204.14 868.08 205.31C868.08 206.48 867.13 207.42 865.96 207.42ZM853.9 207.27C852.82 207.27 851.94 206.39 851.94 205.31C851.94 204.23 852.82 203.34 853.9 203.34C854.98 203.34 855.87 204.22 855.87 205.31C855.87 206.4 854.99 207.27 853.9 207.27ZM841.85 206.96C840.93 206.96 840.19 206.22 840.19 205.3C840.19 204.38 840.93 203.64 841.85 203.64C842.77 203.64 843.51 204.38 843.51 205.3C843.51 206.22 842.77 206.96 841.85 206.96ZM829.79 206.7C829.02 206.7 828.39 206.07 828.39 205.3C828.39 204.53 829.02 203.9 829.79 203.9C830.56 203.9 831.19 204.53 831.19 205.3C831.19 206.07 830.56 206.7 829.79 206.7ZM817.74 206.48C817.09 206.48 816.56 205.95 816.56 205.3C816.56 204.65 817.09 204.12 817.74 204.12C818.39 204.12 818.92 204.65 818.92 205.3C818.92 205.95 818.39 206.48 817.74 206.48ZM1004.82 207.57C1004.55 206.87 1004.39 206.1 1004.39 205.3C1004.39 204.32 1004.62 203.39 1005.02 202.56C1004.88 202.57 1004.73 202.58 1004.58 202.58C1004.24 202.58 1003.92 202.55 1003.6 202.5C1004.06 203.33 1004.33 204.29 1004.33 205.31C1004.33 206.13 1004.16 206.91 1003.85 207.62C1004.09 207.59 1004.34 207.58 1004.59 207.58H1004.82V207.57ZM1003.85 219.97C1004.16 220.68 1004.33 221.46 1004.33 222.28C1004.33 223.3 1004.07 224.26 1003.6 225.09C1003.92 225.04 1004.25 225.01 1004.58 225.01C1004.73 225.01 1004.87 225.01 1005.02 225.03C1004.61 224.2 1004.39 223.27 1004.39 222.29C1004.39 221.49 1004.54 220.73 1004.82 220.02H1004.59C1004.34 220.02 1004.1 220.01 1003.85 219.98V219.97ZM993.52 208.1C993.06 207.27 992.79 206.32 992.79 205.3C992.79 204.08 993.17 202.95 993.82 202.01C993.41 202.11 992.98 202.17 992.54 202.17C991.84 202.17 991.18 202.04 990.57 201.79C991.39 202.73 991.88 203.96 991.88 205.3C991.88 206.38 991.56 207.38 991.01 208.22C991.5 208.08 992.01 208.01 992.55 208.01C992.89 208.01 993.21 208.04 993.53 208.09L993.52 208.1ZM997.58 216.59C997.9 216.53 998.23 216.51 998.56 216.51C998.71 216.51 998.85 216.51 998.99 216.53C998.58 215.71 998.36 214.78 998.36 213.8C998.36 212.82 998.59 211.89 998.99 211.06C998.85 211.07 998.7 211.08 998.56 211.08C998.22 211.08 997.89 211.05 997.58 211C998.04 211.83 998.31 212.79 998.31 213.8C998.31 214.81 998.05 215.77 997.58 216.6V216.59ZM991 219.35C991.55 220.19 991.87 221.2 991.87 222.27C991.87 223.61 991.38 224.84 990.56 225.78C991.17 225.54 991.84 225.4 992.53 225.4C992.97 225.4 993.4 225.46 993.81 225.56C993.16 224.63 992.78 223.49 992.78 222.27C992.78 221.25 993.05 220.3 993.51 219.47C993.19 219.53 992.86 219.55 992.53 219.55C992 219.55 991.48 219.48 990.99 219.34L991 219.35ZM984.54 217.29C985.15 217.05 985.82 216.91 986.51 216.91C986.95 216.91 987.38 216.96 987.79 217.06C987.14 216.13 986.76 215 986.76 213.78C986.76 212.56 987.14 211.43 987.79 210.5C987.38 210.6 986.95 210.65 986.51 210.65C985.81 210.65 985.15 210.52 984.54 210.27C985.35 211.21 985.85 212.44 985.85 213.78C985.85 215.12 985.36 216.34 984.55 217.28L984.54 217.29ZM968.43 218.31C965.93 218.31 963.91 216.29 963.91 213.79C963.91 211.29 965.94 209.27 968.43 209.27C970.92 209.27 972.95 211.3 972.95 213.79C972.95 216.28 970.93 218.31 968.43 218.31ZM956.37 217.99C954.05 217.99 952.17 216.11 952.17 213.79C952.17 211.47 954.05 209.59 956.37 209.59C958.69 209.59 960.57 211.47 960.57 213.79C960.57 216.11 958.69 217.99 956.37 217.99ZM944.32 217.69C942.16 217.69 940.41 215.94 940.41 213.79C940.41 211.64 942.16 209.89 944.32 209.89C946.48 209.89 948.22 211.64 948.22 213.79C948.22 215.94 946.47 217.69 944.32 217.69ZM932.27 217.41C930.27 217.41 928.65 215.78 928.65 213.78C928.65 211.78 930.27 210.16 932.27 210.16C934.27 210.16 935.89 211.78 935.89 213.78C935.89 215.78 934.26 217.41 932.27 217.41ZM920.21 217.15C918.35 217.15 916.84 215.64 916.84 213.78C916.84 211.92 918.35 210.41 920.21 210.41C922.07 210.41 923.58 211.92 923.58 213.78C923.58 215.64 922.07 217.15 920.21 217.15ZM908.15 216.91C906.42 216.91 905.02 215.51 905.02 213.78C905.02 212.05 906.42 210.65 908.15 210.65C909.88 210.65 911.28 212.05 911.28 213.78C911.28 215.51 909.88 216.91 908.15 216.91ZM896.09 216.69C894.49 216.69 893.18 215.39 893.18 213.78C893.18 212.17 894.48 210.87 896.09 210.87C897.7 210.87 899 212.17 899 213.78C899 215.39 897.7 216.69 896.09 216.69ZM884.04 216.23C882.69 216.23 881.59 215.13 881.59 213.78C881.59 212.43 882.69 211.33 884.04 211.33C885.39 211.33 886.49 212.43 886.49 213.78C886.49 215.13 885.39 216.23 884.04 216.23ZM871.98 216.06C870.72 216.06 869.7 215.04 869.7 213.78C869.7 212.52 870.72 211.5 871.98 211.5C873.24 211.5 874.26 212.52 874.26 213.78C874.26 215.04 873.24 216.06 871.98 216.06ZM859.92 215.9C858.75 215.9 857.81 214.95 857.81 213.78C857.81 212.61 858.76 211.66 859.92 211.66C861.08 211.66 862.04 212.61 862.04 213.78C862.04 214.95 861.09 215.9 859.92 215.9ZM847.86 215.75C846.78 215.75 845.89 214.87 845.89 213.78C845.89 212.69 846.77 211.82 847.86 211.82C848.95 211.82 849.83 212.7 849.83 213.78C849.83 214.86 848.95 215.75 847.86 215.75ZM835.8 215.44C834.89 215.44 834.14 214.7 834.14 213.78C834.14 212.86 834.88 212.12 835.8 212.12C836.72 212.12 837.46 212.86 837.46 213.78C837.46 214.7 836.72 215.44 835.8 215.44ZM823.75 215.18C822.98 215.18 822.35 214.55 822.35 213.78C822.35 213.01 822.98 212.38 823.75 212.38C824.52 212.38 825.15 213.01 825.15 213.78C825.15 214.55 824.52 215.18 823.75 215.18ZM811.69 214.96C811.04 214.96 810.51 214.43 810.51 213.78C810.51 213.13 811.04 212.6 811.69 212.6C812.34 212.6 812.87 213.13 812.87 213.78C812.87 214.43 812.34 214.96 811.69 214.96ZM1930.77 306.6C1938.58 306.6 1945.12 301.37 1947.11 293.87L1952.84 272.31L1956.06 260.18H1818.51L1824.73 236.95L1949.47 236.99C1957.27 236.99 1963.83 231.75 1965.82 224.26L1971.54 202.7L1974.76 190.57L1802.06 190.55C1794.75 190.55 1788.54 195.14 1786.16 201.9H1786.15L1786.04 202.24L1785.93 202.58V202.6L1785.83 202.94L1785.73 203.3C1770.29 261.02 1754.47 318.7 1739.36 376.5C1799.13 376.63 1852.33 376.2 1912.13 376.22C1919.94 376.22 1926.48 371 1928.47 363.5L1934.19 341.96L1937.42 329.83L1799.88 329.81L1806.1 306.57L1930.79 306.61L1930.77 306.6ZM1030.66 134.39H1036.71L1038.32 124.03H1041.04L1046.13 134.39H1052.41L1046.77 123.02C1050.6 122.19 1053.54 119.54 1053.54 114.88C1053.57 110.23 1050.15 107.56 1044.26 107.56H1034.93L1030.68 134.39H1030.66ZM1039 119.91L1040.24 112.2H1043.54C1046.17 112.2 1047.6 113.21 1047.56 115.47C1047.56 118.52 1045.79 119.91 1042.57 119.91H1039.01H1039ZM1042.09 140.52C1047.48 140.52 1052.37 138.32 1055.91 134.8C1059.43 131.27 1061.64 126.37 1061.64 120.98C1061.64 115.59 1059.44 110.68 1055.91 107.15C1052.37 103.63 1047.48 101.43 1042.09 101.43C1036.7 101.43 1031.79 103.62 1028.25 107.15C1024.72 110.69 1022.54 115.58 1022.54 120.98C1022.54 126.38 1024.72 131.27 1028.25 134.8C1031.78 138.32 1036.7 140.52 1042.09 140.52ZM1058.49 137.38C1054.3 141.59 1048.5 144.18 1042.09 144.18C1035.68 144.18 1029.89 141.59 1025.68 137.38C1021.49 133.19 1018.89 127.38 1018.89 120.98C1018.89 114.58 1021.49 108.77 1025.67 104.57C1029.89 100.37 1035.69 97.78 1042.08 97.78C1048.47 97.78 1054.29 100.37 1058.48 104.57C1062.68 108.77 1065.28 114.58 1065.28 120.98C1065.28 127.38 1062.68 133.18 1058.48 137.38H1058.49ZM1484.17 203C1486.18 195.46 1492.92 190.49 1500.68 190.5L1522.98 190.56L1535.53 190.59L1510.65 283.39L1489.14 363.79C1487.13 371.32 1480.38 376.3 1472.63 376.28L1450.33 376.22L1437.77 376.2L1462.66 283.39L1484.17 203ZM1255.44 283.51H1367.35C1380.15 283.51 1390.53 273.14 1390.53 260.33C1390.53 247.52 1380.21 237.14 1367.35 237.14H1267.86L1255.45 283.51H1255.44ZM1367.35 190.72C1405.72 190.72 1436.94 221.94 1436.94 260.33C1436.94 286.16 1422.69 309.71 1400.01 321.79L1414.59 376.2L1379.74 376.28C1371.98 376.3 1365.24 371.32 1363.22 363.79L1354.15 329.92H1243.01L1233.95 363.79C1231.93 371.32 1225.19 376.3 1217.43 376.28L1182.58 376.2L1232.32 190.59C1271.78 190.59 1327.83 190.73 1367.35 190.73V190.72ZM1913.65 470.55C1916.59 470.55 1918.88 468.32 1918.88 465.44C1918.88 462.56 1916.53 460.26 1913.58 460.26C1910.63 460.26 1908.47 462.55 1908.47 465.44C1908.47 468.33 1910.7 470.55 1913.65 470.55ZM1869.04 470.08H1899.43L1900.55 463.21H1878.8L1881.03 449.53H1897.53L1898.51 442.97H1882.01L1884.04 430.13H1904.41L1905.53 423.26H1876.44L1869.04 470.08ZM1838.78 444.93L1841.2 430H1848.01C1853.06 430 1855.81 431.96 1855.74 436.36C1855.74 442.18 1852.4 444.93 1845.98 444.93H1838.77H1838.78ZM1826.14 470.08H1834.85L1837.8 451.15H1843.57L1853.32 470.08H1862.43L1851.94 449.84C1858.96 448.6 1864.33 443.95 1864.33 435.69C1864.47 427.64 1858.37 423.26 1848.94 423.26H1833.54L1826.14 470.08ZM1812.58 443.76C1812.58 454.89 1806.3 463.81 1796.35 463.81C1788.35 463.81 1783.11 458.36 1783.11 449.71C1783.11 438.98 1789.26 429.54 1799.61 429.54C1808.19 429.61 1812.58 435.9 1812.58 443.77V443.76ZM1821.62 443.56C1821.62 431.38 1813.1 422.59 1799.81 422.59C1785 422.59 1774.06 434.46 1774.06 449.91C1774.06 462.43 1783.17 470.74 1795.93 470.74C1810.68 470.74 1821.61 459.42 1821.61 443.56H1821.62ZM1714.6 470.08H1722.46L1728.09 434.66L1736.66 470.08H1739.47L1759 434.66L1753.43 470.08H1762.13L1769.54 423.26H1757.68L1740.59 455.15L1733.32 423.26H1721.98L1714.59 470.08H1714.6ZM1660.49 470.08H1690.88L1691.99 463.21H1670.24L1672.47 449.53H1688.98L1689.96 442.97H1673.45L1675.49 430.13H1695.85L1696.97 423.26H1667.88L1660.49 470.08ZM1628.07 470.08H1638.22L1661.48 423.26H1653.02L1634.82 461.24L1628.6 423.26H1619.75L1628.07 470.08ZM1600.17 430.39L1603.64 452.14H1589.76L1600.17 430.39ZM1606.52 470.08H1615.37L1607.32 423.26H1595.92L1572.86 470.08H1581.24L1586.74 458.49H1604.63L1606.52 470.08ZM1553.54 470.74C1564.86 470.74 1571.48 464.4 1571.48 455.61C1571.48 448.14 1566.77 444.93 1557.01 442.31C1550.06 440.41 1548.23 438.9 1548.23 435.83C1548.23 432.03 1550.79 429.21 1556.29 429.21C1561.2 429.21 1564.48 431.05 1564.94 436.21H1572.93C1572.86 427.24 1566.64 422.66 1556.74 422.66C1546.27 422.66 1539.86 428.88 1539.86 436.62C1539.86 444.36 1544.37 447.22 1554.2 449.7C1560.94 451.55 1562.91 453.23 1562.91 456.71C1562.91 461.36 1559.71 464.25 1553.87 464.19C1546.52 464.19 1543.78 460 1543.58 455.54H1535.19C1535.19 464.13 1541.36 470.74 1553.53 470.74H1553.54ZM1705.44 202.95C1709.48 195.41 1717.57 190.43 1725.32 190.45L1753.4 190.5L1765.93 190.53L1716.19 283.34L1673.15 363.73C1669.12 371.27 1661.03 376.25 1653.28 376.22H1644.57H1637.44L1615.14 376.28C1614.41 376.28 1613.68 376.24 1612.96 376.14H1612.66L1612.68 376.11C1605.98 375.2 1600.43 370.51 1598.63 363.79L1577.12 283.39L1552.23 190.59L1564.79 190.56L1587.09 190.5C1594.85 190.48 1601.59 195.46 1603.6 203L1625.1 283.39L1637.52 329.74L1662.38 283.35L1705.42 202.95H1705.44Z" fill="white"/>
<path fill-rule="evenodd" clip-rule="evenodd" d="M446.79 376.2H291.15C240.01 376.21 198.34 334.54 198.34 283.4C198.34 232.26 240.01 190.59 291.15 190.59H393.42C425.32 190.59 451.42 216.7 451.42 248.59C451.42 280.48 425.32 306.6 393.42 306.6H250.9C252.94 310.15 255.42 313.39 258.28 316.26C266.67 324.62 278.29 329.8 291.14 329.8H421.5C429.3 329.8 435.86 335.03 437.84 342.53L443.56 364.08L446.78 376.2H446.79ZM880.08 237H805.92C780.29 237 759.53 257.79 759.53 283.41C759.53 309.03 780.2 329.8 805.92 329.8L878.51 329.77C904.24 329.77 924.9 309.1 924.9 283.38C924.9 257.66 904.98 237.83 880.08 237.01V237ZM981.12 97.8L228 97.78C151.72 97.78 84.96 149.01 65.21 222.7L0 469.01H752.38C817.81 469.01 874.49 432.29 902.78 376.18L805.92 376.21C754.78 376.21 713.12 334.54 713.12 283.41C713.12 232.28 754.67 190.6 805.92 190.6H956.26L981.12 97.8ZM291.14 237C278.29 237 266.67 242.18 258.28 250.54C255.42 253.41 252.94 256.65 250.9 260.19H393.41C399.94 260.19 405.01 255.13 405.01 248.59C405.01 242.05 399.95 236.99 393.41 236.99H291.14V237ZM564.45 329.79H679.15C686.95 329.8 693.51 335.03 695.49 342.53L701.21 364.08L704.43 376.21H564.44C513.19 376.2 471.64 334.64 471.64 283.39C471.64 232.14 513.31 190.59 564.44 190.59L704.43 190.63L701.21 202.76L695.49 224.31C693.5 231.81 686.95 237.04 679.15 237.04L564.45 237C538.73 237 518.06 257.67 518.06 283.39C518.06 309.11 538.83 329.79 564.45 329.79Z" fill="white"/>
</g>
<defs>
<clipPath id="clip0_122_116">
<rect width="1974.81" height="568.53" fill="white"/>
</clipPath>
</defs>
</svg>
